<svg id="visual" viewBox="0 0 960 540" width="960" height="540" xmlns="http://www.w3.org/2000/svg" xmlns:xlink="http://www.w3.org/1999/xlink" version="1.1"><path d="M0 296L26.7 291.5C53.3 287 106.7 278 160 267.2C213.3 256.3 266.7 243.7 320 249.2C373.3 254.7 426.7 278.3 480 270.5C533.3 262.7 586.7 223.3 640 224.8C693.3 226.3 746.7 268.7 800 279C853.3 289.3 906.7 267.7 933.3 256.8L960 246L960 541L933.3 541C906.7 541 853.3 541 800 541C746.7 541 693.3 541 640 541C586.7 541 533.3 541 480 541C426.7 541 373.3 541 320 541C266.7 541 213.3 541 160 541C106.7 541 53.3 541 26.7 541L0 541Z" fill="#25d7ff"></path><path d="M0 346L26.7 334.5C53.3 323 106.7 300 160 305C213.3 310 266.7 343 320 337.2C373.3 331.3 426.7 286.7 480 287.5C533.3 288.3 586.7 334.7 640 343.7C693.3 352.7 746.7 324.3 800 326.8C853.3 329.3 906.7 362.7 933.3 379.3L960 396L960 541L933.3 541C906.7 541 853.3 541 800 541C746.7 541 693.3 541 640 541C586.7 541 533.3 541 480 541C426.7 541 373.3 541 320 541C266.7 541 213.3 541 160 541C106.7 541 53.3 541 26.7 541L0 541Z" fill="#00beff"></path><path d="M0 274L26.7 298.7C53.3 323.3 106.7 372.7 160 395.7C213.3 418.7 266.7 415.3 320 396.3C373.3 377.3 426.7 342.7 480 330.5C533.3 318.3 586.7 328.7 640 324C693.3 319.3 746.7 299.7 800 301.8C853.3 304 906.7 328 933.3 340L960 352L960 541L933.3 541C906.7 541 853.3 541 800 541C746.7 541 693.3 541 640 541C586.7 541 533.3 541 480 541C426.7 541 373.3 541 320 541C266.7 541 213.3 541 160 541C106.7 541 53.3 541 26.7 541L0 541Z" fill="#00a2ff"></path><path d="M0 369L26.7 362.7C53.3 356.3 106.7 343.7 160 344.8C213.3 346 266.7 361 320 365C373.3 369 426.7 362 480 373.3C533.3 384.7 586.7 414.3 640 420.7C693.3 427 746.7 410 800 400.3C853.3 390.7 906.7 388.3 933.3 387.2L960 386L960 541L933.3 541C906.7 541 853.3 541 800 541C746.7 541 693.3 541 640 541C586.7 541 533.3 541 480 541C426.7 541 373.3 541 320 541C266.7 541 213.3 541 160 541C106.7 541 53.3 541 26.7 541L0 541Z" fill="#0081ff"></path><path d="M0 452L26.7 452.5C53.3 453 106.7 454 160 455.2C213.3 456.3 266.7 457.7 320 459.8C373.3 462 426.7 465 480 454.8C533.3 444.7 586.7 421.3 640 410.8C693.3 400.3 746.7 402.7 800 404.7C853.3 406.7 906.7 408.3 933.3 409.2L960 410L960 541L933.3 541C906.7 541 853.3 541 800 541C746.7 541 693.3 541 640 541C586.7 541 533.3 541 480 541C426.7 541 373.3 541 320 541C266.7 541 213.3 541 160 541C106.7 541 53.3 541 26.7 541L0 541Z" fill="#0058ff"></path><path d="M0 440L26.7 439C53.3 438 106.7 436 160 439.2C213.3 442.3 266.7 450.7 320 456.7C373.3 462.7 426.7 466.3 480 468.8C533.3 471.3 586.7 472.7 640 466.3C693.3 460 746.7 446 800 440C853.3 434 906.7 436 933.3 437L960 438L960 541L933.3 541C906.7 541 853.3 541 800 541C746.7 541 693.3 541 640 541C586.7 541 533.3 541 480 541C426.7 541 373.3 541 320 541C266.7 541 213.3 541 160 541C106.7 541 53.3 541 26.7 541L0 541Z" fill="#0000ff"></path></svg>