<svg id="visual" viewBox="0 0 900 150" width="900" height="150" xmlns="http://www.w3.org/2000/svg" xmlns:xlink="http://www.w3.org/1999/xlink" version="1.1"><path d="M0 19L75 22.5C150 26 300 33 450 32.5C600 32 750 24 825 20L900 16L900 151L825 151C750 151 600 151 450 151C300 151 150 151 75 151L0 151Z" fill="#25d7ff"></path><path d="M0 47L75 47.5C150 48 300 49 450 50C600 51 750 52 825 52.5L900 53L900 151L825 151C750 151 600 151 450 151C300 151 150 151 75 151L0 151Z" fill="#00caff"></path><path d="M0 41L75 44.3C150 47.7 300 54.3 450 56.3C600 58.3 750 55.7 825 54.3L900 53L900 151L825 151C750 151 600 151 450 151C300 151 150 151 75 151L0 151Z" fill="#00bbff"></path><path d="M0 73L75 71.7C150 70.3 300 67.7 450 66.7C600 65.7 750 66.3 825 66.7L900 67L900 151L825 151C750 151 600 151 450 151C300 151 150 151 75 151L0 151Z" fill="#00acff"></path><path d="M0 85L75 83.7C150 82.3 300 79.7 450 79.5C600 79.3 750 81.7 825 82.8L900 84L900 151L825 151C750 151 600 151 450 151C300 151 150 151 75 151L0 151Z" fill="#009cff"></path><path d="M0 81L75 82C150 83 300 85 450 86.7C600 88.3 750 89.7 825 90.3L900 91L900 151L825 151C750 151 600 151 450 151C300 151 150 151 75 151L0 151Z" fill="#0089ff"></path><path d="M0 102L75 100.2C150 98.3 300 94.7 450 93.3C600 92 750 93 825 93.5L900 94L900 151L825 151C750 151 600 151 450 151C300 151 150 151 75 151L0 151Z" fill="#0075ff"></path><path d="M0 115L75 113.8C150 112.7 300 110.3 450 110.2C600 110 750 112 825 113L900 114L900 151L825 151C750 151 600 151 450 151C300 151 150 151 75 151L0 151Z" fill="#005dff"></path><path d="M0 130L75 130.2C150 130.3 300 130.7 450 129C600 127.3 750 123.7 825 121.8L900 120L900 151L825 151C750 151 600 151 450 151C300 151 150 151 75 151L0 151Z" fill="#0040ff"></path><path d="M0 130L75 131.2C150 132.3 300 134.7 450 135.7C600 136.7 750 136.3 825 136.2L900 136L900 151L825 151C750 151 600 151 450 151C300 151 150 151 75 151L0 151Z" fill="#0000ff"></path></svg>